HIERARCHY
ROOT hip
{
  OFFSET 0.0 0.0 0.0
  CHANNELS 6 Xposition Yposition Zposition Zrotation Yrotation Xrotation
  JOINT torso
  {
    OFFSET 0.0 0.0 0.0
    CHANNELS 3 Zrotation Xrotation Yrotation
    JOINT neck
    {
      OFFSET -8.059630999999968 325.56260699999996 64.6221310000002
      CHANNELS 3 Zrotation Xrotation Yrotation
      JOINT head
      {
        OFFSET 34.685424000000125 375.1179809999999 232.79357900000002
        CHANNELS 3 Zrotation Xrotation Yrotation
        End Site
        {
          OFFSET 0.0 0.0 0.0
        }
      }
    }
    JOINT left_collar
    {
      OFFSET -8.059630999999968 325.56260699999996 64.6221310000002
      CHANNELS 3 Zrotation Xrotation Yrotation
      JOINT left_upper_arm
      {
        OFFSET -124.124665 -15.370300999999927 25.582641999999964
        CHANNELS 3 Zrotation Xrotation Yrotation
        JOINT left_forearm
        {
          OFFSET -268.19913399999996 105.06054699999993 114.74548300000004
          CHANNELS 3 Zrotation Xrotation Yrotation
          JOINT left_hand
          {
            OFFSET -235.82003099999991 -10.198180999999977 -38.67455999999993
            CHANNELS 3 Zrotation Xrotation Yrotation
            End Site
            {
              OFFSET 0.0 0.0 0.0
            }
          }
        }
      }
    }
    JOINT right_collar
    {
      OFFSET -8.059630999999968 325.56260699999996 64.6221310000002
      CHANNELS 3 Zrotation Xrotation Yrotation
      JOINT right_upper_arm
      {
        OFFSET 162.73931899999997 -2.8598030000000563 26.244994999999903
        CHANNELS 3 Zrotation Xrotation Yrotation
        JOINT right_forearm
        {
          OFFSET 284.6506340000001 103.07031299999994 145.84521499999994
          CHANNELS 3 Zrotation Xrotation Yrotation
          JOINT right_hand
          {
            OFFSET 226.332337 -12.198241999999937 -49.27258299999994
            CHANNELS 3 Zrotation Xrotation Yrotation
            End Site
            {
              OFFSET 0.0 0.0 0.0
            }
          }
        }
      }
    }
  }
}
MOTION
Frames: 19
Frame Time: 0.01
425.71491281601567 192.0131537148924 181.19732826058228 7.831561621727846 -7.6232646460180105 -12.78235620668607 1.120386236428418 -0.5855839982007939 -0.24243158273320498 -6.355171090211248 -3.9386909902362683 4.456566462425434 0.0 0.0 0.0 5.467881951491609 -1.8356799371733503 17.411639723109467 36.486376481281305 13.565713602743143 -61.88196715482207 19.18856970840314 2.5890245338796265 -27.041362786715826 0.0 0.0 0.0 1.3694398833351478 -0.20890151057846845 2.2360708254495676 34.5320135027382 -22.781992308128647 2.8853278905086266 78.99881794549404 22.683903403232698 -4.226250540208976 0.0 0.0 0.0
427.7672218918914 192.31291251493712 181.15737464696457 7.876489914470199 -7.6164269449010025 -13.469952040642948 1.128199532615417 -0.5191862664534426 -0.24175376438145235 -6.398114801615273 -3.978083588096682 4.489248352365797 0.0 0.0 0.0 5.569038817030121 -1.86273223110049 17.6017954030581 35.55993623422392 12.358401505511122 -63.59964123338453 18.468665850796356 2.590808263608487 -27.31773067492314 0.0 0.0 0.0 1.4674780113337604 -0.22568522914318664 2.4582510314044437 34.15628690762431 -22.500644187570302 2.8788366813196267 78.65784853858374 23.441098372814437 -5.404111467031569 0.0 0.0 0.0
429.547078931478 192.59741429439697 181.0816899391907 7.892213236458037 -7.602075904731625 -14.087236967708217 1.1327204105137114 -0.45216745335032676 -0.2403790980287188 -6.407756334723425 -4.034696511910006 4.502416354382768 0.0 0.0 0.0 5.676668123761615 -1.8864247512797419 17.77192609715133 34.51372953490252 10.906615302500516 -65.36887121631742 17.68721492909658 2.628314832819683 -27.815095406957138 0.0 0.0 0.0 1.5568764617160693 -0.24139615153359278 2.6432294967694694 33.749618629049344 -22.258835513164954 2.944749128753977 78.35389052902721 24.114320796979992 -6.460476881435249 0.0 0.0 0.0
431.05274848283966 192.86198863855603 180.97217892502732 7.8792302471332025 -7.580325631048905 -14.631377583362173 1.1340956887392144 -0.38639819285291543 -0.23840669360279024 -6.384654510534209 -4.106487446715013 4.496153331195599 0.0 0.0 0.0 5.792099984315599 -1.9071776875053577 17.925003851857124 33.35801433991868 9.19741378083293 -67.16737391378926 16.828887684392356 2.695946340927 -28.539698332792963 0.0 0.0 0.0 1.6361527883892537 -0.25563216088735574 2.788707792641425 33.316475100896305 -22.055885766346435 3.0796425839076753 78.10021093541748 24.70275387776537 -7.383780600331354 0.0 0.0 0.0
432.28575430506936 193.1027227461982 180.8311130707064 7.838338752750173 -7.551229241090524 -15.10062178162863 1.1325583092366927 -0.32366223969360525 -0.23594975499221296 -6.329803163118133 -4.1913046709345725 4.47080159729391 0.0 0.0 0.0 5.915945422529628 -1.9254056922068559 18.06371456629421 32.105680327198655 7.223594353158254 -68.96628009566628 15.874328198655105 2.7858791126883444 -29.49537912239875 0.0 0.0 0.0 1.70414194993665 -0.26805454446275534 2.893081694317249 32.86030087437859 -21.890475693274876 3.280232430650003 77.90902238685386 25.20555575070682 -8.162760842873372 0.0 0.0 0.0
433.2506838633473 193.31655202856248 180.66106589178335 7.770610665101729 -7.51481311030263 -15.494316525417979 1.1284034152579407 -0.2656112843121188 -0.2331285742592712 -6.244591000395959 -4.286889914586045 4.426942254188819 0.0 0.0 0.0 6.047960179377416 -1.9414729591949123 18.190194929312224 30.771261110521063 4.985667771597641 -70.73097342481493 14.800841066321388 2.887439516063418 -30.682124833264943 0.0 0.0 0.0 1.7599588340027728 -0.2783914589297864 2.9553666788171804 32.383618730665134 -21.76075559779476 3.5433770075652724 77.79113463885547 25.62176088712354 -8.786898274495483 0.0 0.0 0.0
433.95494616541936 193.5013131660066 180.46485296153594 7.677363871753229 -7.471114243392987 -15.812897270960805 1.121962235552212 -0.21373384002697304 -0.2300637820952663 -6.1307515914659145 -4.390872494970585 4.365367035385717 0.0 0.0 0.0 6.1869597015775755 -1.9556499564758199 18.305800362528455 29.36960037463232 2.4935859094185577 -72.42252074855693 13.583672405101385 2.9865674849864914 -32.09447082002722 0.0 0.0 0.0 1.8029523996393346 -0.2864370627551328 2.9751126420040688 31.888143438334733 -21.66444988020717 3.8660828147782325 77.75560843238584 25.95017708207933 -9.246844125336086 0.0 0.0 0.0
434.4084905394725 193.65576226699767 180.2454753318295 7.5601306412316545 -7.420217497498473 -16.057849017263226 1.1135759093997784 -0.16933820964385 -0.22687030011096868 -5.9903050185399795 -4.50075820434431 4.287043914487284 0.0 0.0 0.0 6.330793683557036 -1.9680746130773692 18.410921584500247 27.9143546764127 -0.23209038944621682 -73.99954584185319 12.197913746198475 3.0655542818032795 -33.71994513289705 0.0 0.0 0.0 1.8326548969622407 -0.2920471376621389 2.9523122943594133 31.374903982381106 -21.59895751489617 4.245510738398053 77.80943676564293 26.18929160432696 -9.53481631655522 0.0 0.0 0.0
434.62349471107314 193.7795617997107 180.0060650830097 7.420622334967561 -7.362289473898175 -16.23164012322 1.1035711343046595 -0.13354852090586505 -0.22365231282502465 -5.825493037496326 -4.613917004973495 4.193078032797778 0.0 0.0 0.0 6.476382739371238 -1.9787208040157194 18.50486294282441 26.416574382703203 -3.1598665061998306 -75.42031550848678 10.620911540140355 3.1032660708116646 -35.53781529102453 0.0 0.0 0.0 1.848729363102493 -0.29513222131443945 2.8873078402952856 30.844369326848494 -21.56144785694534 4.678983380561603 77.95727767135175 26.337200927706213 -9.644941575372439 0.0 0.0 0.0
434.6140309318883 193.87324070419146 179.74983185245256 7.260690531432139 -7.297606238589097 -16.33763130382849 1.0922391120831152 -0.10731188735616558 -0.22049943426182192 -5.638709915174549 -4.72757387084378 4.084669758315233 0.0 0.0 0.0 6.619813574757956 -1.9873769482359134 18.58578997493683 24.883608019900628 -6.248005190437244 -76.64477518677272 8.834888352109667 3.0760279735556275 -37.51842398394467 0.0 0.0 0.0 1.8509183024200038 -0.295649360328809 2.7807007005488815 30.29657295423367 -21.54895081005007 5.1639931808007065 78.20125982947096 26.391576555253028 -9.573522483325542 0.0 0.0 0.0
434.3957188593565 193.93813252693295 179.48000951528692 7.082285105660242 -7.226572569302307 -16.379963362415307 1.079818797539774 -0.09141404445887504 -0.21748411106783377 -5.432431399215177 -4.838807033723976 3.963071857998138 0.0 0.0 0.0 6.756483276292737 -1.9936373046656464 18.650747494064138 23.318520474496424 -9.446232347357304 -77.63630363774733 6.829333268313444 2.9592263916431727 -39.6233645250699 0.0 0.0 0.0 1.838996137623321 -0.293593573559238 2.633269035465878 29.731231632771625 -21.558440006828445 5.698210769404704 78.54087789290534 26.34967492258675 -9.319210403930951 0.0 0.0 0.0
433.9853733968059 193.97629655097606 179.1998026758064 6.88741024620341 -7.149731090017273 -16.36342809071397 1.0664850084806148 -0.08650042102830217 -0.21466020143587627 -5.209144481080132 -4.944557419153357 3.8295478270496557 0.0 0.0 0.0 6.88127886265962 -1.996908016848241 18.695743699490503 21.72012041912176 -12.6982630794871 -78.363043751127 4.602670830918802 2.7295056533155972 -41.80663767169014 0.0 0.0 0.0 1.8127276720111367 -0.28899000554497495 2.4458975613930436 29.147854159572773 -21.58690728541452 6.279492836287898 78.97298825747399 26.20839285455199 -8.883068604463345 0.0 0.0 0.0
433.4006549209442 193.9904267500157 178.9123332002972 6.6780797387424435 -7.067760372885651 -16.293327306759288 1.0523416076760774 -0.09309955560954156 -0.21206260841113939 -4.971280700541402 -5.041652238340282 3.685333367917171 0.0 0.0 0.0 6.9887757037420855 -1.9964290881273863 18.715891170183408 20.083588888729228 -15.944800940442374 -78.79878116837035 2.1628195166094795 2.3672436334543403 -44.016761508072285 0.0 0.0 0.0 1.771834447857281 -0.28188757070023523 2.2195235953833126 28.545836244419064 -21.631426436411406 6.905888691386229 79.49190812514388 25.964362601824185 -8.268515021168183 0.0 0.0 0.0
432.659728443802 193.98375303316536 178.6205875758696 6.456273056191568 -6.981461806382974 -16.175325193854576 1.037419731692507 -0.11164600799309053 -0.20970782440629848 -4.721155679823105 -5.126844636817071 3.5316028506242323 0.0 0.0 0.0 7.073438171739774 -1.9913123366414087 18.70559268781438 18.401618701949896 -19.126599692249627 -78.92344883191917 -0.47350726689193573 1.8588665662866222 -46.199613578393055 0.0 0.0 0.0 1.7159705438513746 -0.27235466399948105 1.9551024422679342 27.9245382417457 -21.6892039830684 7.575644618950718 80.08961122659356 25.61407342580585 -7.481141205287351 0.0 0.0 0.0
431.7809374076877 193.95993874528818 178.32736631676852 6.223893876077483 -6.891735724401296 -16.015298991019616 1.021680872296825 -0.1425003475839834 -0.20759524461781637 -4.460917339124236 -5.196870112958809 3.3694423166624863 0.0 0.0 0.0 7.129807967257068 -1.9805941354401417 18.65875890002706 16.66592747395501 -22.187217962872797 -78.7234032941933 -3.282600064400002 1.1985649210694485 -48.30162454755287 0.0 0.0 0.0 1.6447090546177432 -0.2604772668875184 1.6535942087337294 27.283343089933876 -21.75761467034687 8.287205082197431 80.75600302922844 25.154001420494602 -6.528412742054577 0.0 0.0 0.0
430.7824970184142 193.92297781610378 178.03523690110583 5.982732621389943 -6.799547955067849 -15.819192751491302 1.0050244492838145 -0.18596431807944575 -0.20570911145303825 -4.1925048200916155 -5.2485192184818175 3.1998302154302842 0.0 0.0 0.0 7.152669650357788 -1.9633005755924111 18.56904579345388 14.86899006202541 -25.075220139035984 -78.19163080016142 -6.23624001151001 0.38910634051633214 -50.27286801939493 0.0 0.0 0.0 1.5575402664197648 -0.2463595273425203 1.3159729697424405 26.62169254897774 -21.834219384571266 9.039209814043337 81.47924770952092 24.580726991063823 -5.419266002523818 0.0 0.0 0.0
429.68221126616555 193.87709435696007 177.74649179523874 5.734434499013012 -6.705888561106742 -15.592878435953736 0.987299319275831 -0.242289808602801 -0.20402094985738617 -3.9176195476372775 -5.278724920506513 3.0236266002880043 0.0 0.0 0.0 7.137188409421084 -1.9385217500252991 18.43010239441384 13.005831494305468 -27.745733007083466 -77.32799677541739 -9.304347126264977 -0.5583434266585391 -52.0696278888274 0.0 0.0 0.0 1.4538823856846377 -0.23012665054222017 0.9432580061916656 25.93910062225921 -21.916763413744363 9.830485836125122 82.24611008698325 23.89102099533767 -4.163625141223136 0.0 0.0 0.0
428.4972170715082 193.82664691460909 177.46311303403772 5.480474278888024 -6.611725078713382 -15.342028113757472 0.968318466597344 -0.31168076439340114 -0.20249234669210803 -3.637709138970181 -5.284661994755928 2.841570987402065 0.0 0.0 0.0 7.079021215640362 -1.905491190201779 18.235822361851202 11.075710461762961 -30.16140574892375 -76.13956411903642 -12.457314370582766 -1.62526576158002 -53.656157963795756 0.0 0.0 0.0 1.3331055454700744 -0.2119297010877537 0.5365656301795845 25.235143905550725 -22.003153307200925 10.660033491684024 83.04226976206202 23.08188624041793 -2.7718702083916953 0.0 0.0 0.0
427.24375835314464 193.77603902597792 177.18674461489292 5.222138706052829 -6.5179529967248415 -15.072000521528679 0.9478759711755695 -0.39428762521406935 -0.20107792492642054 -3.353964080916617 -5.263854963038398 2.6542885267054905 0.0 0.0 0.0 6.974408322428442 -1.863666027178721 17.98059636917101 9.0834995432726 -32.29290629771646 -74.64089711380802 -15.667719786569629 -2.787427818263169 -55.0055293248611 0.0 0.0 0.0 1.1945696350853 -0.1919516856493023 0.09717892092051082 24.509429532202006 -22.091411120788454 11.527005672518442 83.85256335390233 22.150550326156655 -1.2542905921722904 0.0 0.0 0.0
